<svg xmlns="http://www.w3.org/2000/svg" width="32" height="31" fill="none"><path fill="#FF6321" d="M27.933 3.426c.218.018.43.18.42.42-.01.21-.186.44-.42.42a24.734 24.734 0 0 0-8.242.68 26.07 26.07 0 0 0-3.922 1.337 25.717 25.717 0 0 0-3.667 1.97 23.484 23.484 0 0 0-3.274 2.537 24.172 24.172 0 0 0-2.754 3.014 25.55 25.55 0 0 0-2.252 3.506 24.685 24.685 0 0 0-1.633 3.765 25.822 25.822 0 0 0-1.099 4.543l-.03.218-.005.033-.004.03-.023.175A25.017 25.017 0 0 0 .84 29.2c.001.339.01.677.025 1.015.01.22-.2.43-.42.42a.429.429 0 0 1-.42-.42 25.585 25.585 0 0 1 1.06-8.437 26.292 26.292 0 0 1 3.69-7.615 25.21 25.21 0 0 1 6.023-6.04 26.186 26.186 0 0 1 7.645-3.704 25.76 25.76 0 0 1 8.473-1.06c.34.015.679.037 1.018.067Z"/><path fill="#FF6321" d="M25.647.12c.168.163.343.317.525.463l.097.076a9.09 9.09 0 0 0 .38.275c.377.26.77.495 1.168.722.798.455 1.617.876 2.381 1.387.446.297.874.625 1.262.994.241.23.102.603-.186.702a56.01 56.01 0 0 0-3.338 1.274l-.074.03-.017.008a56.949 56.949 0 0 0-2.95 1.351c-.197.097-.464.06-.575-.15-.1-.19-.06-.471.15-.575a56.92 56.92 0 0 1 5.876-2.499l-.009-.006-.052-.042a8.97 8.97 0 0 0-.427-.307 17.025 17.025 0 0 0-1.171-.718c-.799-.454-1.617-.876-2.38-1.39A9.16 9.16 0 0 1 25.053.714c-.158-.153-.165-.442 0-.594a.428.428 0 0 1 .594 0Z"/></svg>